<?xml version="1.0" encoding="utf-8"?>
<!-- Generator: Adobe Illustrator 26.3.1, SVG Export Plug-In . SVG Version: 6.00 Build 0)  -->
<svg version="1.1" id="Calque_1" xmlns="http://www.w3.org/2000/svg" xmlns:xlink="http://www.w3.org/1999/xlink" x="0px" y="0px"
	 viewBox="0 0 512 512" style="enable-background:new 0 0 512 512;" xml:space="preserve">
<g>
	<path d="M447.6,329.3c-4.6,10.2-8,20.8-11.9,31.3c-5.9,15.7-11.7,31.5-17.5,47.2c-2.3,6.1-4.2,7.4-10.9,7.4
		c-100.9,0-201.8,0-302.7,0c-6.6,0-8.6-1.4-10.8-7.5c-9.4-25.4-18.8-50.8-28.2-76.2c-2.9-7.9,0.2-12.4,8.6-12.5
		c5.4-0.1,5.1,0,4.3-5.4c-1.1-7.4-4-13.8-8.4-19.7c-5.9-7.9-6-16,0-23.7c5.2-6.8,7.4-14.5,7.9-22.9c0.4-6.2,3.3-11.3,9-13.6
		c9.8-3.9,16.5-10.4,20.4-20.3c2.3-5.7,7.2-8.7,13.5-9.1c8.6-0.6,16.6-2.8,23.5-8.3c4.5-3.5,9.7-5.1,15.4-3.6c2.9,0.8,5.6,2.2,7.9,4
		c6.4,5,13.7,7.4,21.6,8.6c10.1,1.6,17.4,8.7,19.2,18.8c0.5,2.8,1.5,2.9,3.9,2.7c8.4-0.5,15.6-3.6,22.3-8.5c3.8-2.8,8.1-4.3,13-3.5
		c1.5,0.3,1.9-0.4,2.3-1.7c2.4-6.7,7.3-10.6,14.3-11.6c8.7-1.3,16.3-4.7,23.5-9.8c8-5.9,18.2-5.9,26.2,0c7.2,5.3,15,8.7,23.8,9.9
		c3.1,0.4,6.1,1.6,8.4,3.8c1.7,1.6,3.1,1.6,5,0.8c3.5-1.5,6.5-3.7,9.5-5.8c10.4-7.2,19.8-7.5,30,0.1c6.5,4.9,13.8,7.2,21.6,8.6
		c8.4,1.5,13.7,6.5,15,14.9c1.4,8.9,4.8,16.6,10.9,23.3c4.6,5,5.1,10.9,3.1,17.1c-0.3,0.9-0.5,1.9-1,2.8c-3.3,7.1-3.1,14.1,0,21.3
		c3.5,7.9,2.5,15.2-3.6,21.7c-1.9,2-3.3,4.4-4.9,6.6c-1.2,1.6-1.3,2.7,1.2,2.6c1.2-0.1,2.5,0.1,3.7,0c4.6-0.4,8.3,1,10.8,5
		C447.6,325.8,447.6,327.6,447.6,329.3z M256.3,334.4c-56.5,0-113,0-169.5-0.1c-3.1,0-4.2,0.3-2.8,3.8c3.4,8.5,6.5,17.2,9.6,25.9
		c0.8,2.2,1.9,3.1,4.3,3c6.4-0.2,12.7-0.1,19.1-0.1c12.2,0,24.4-0.1,36.7,0c5.8,0,9.3,3.7,8.7,8.8c-0.5,4-3.9,6.5-9,6.6
		c-16.1,0-32.2,0-48.3,0c-4.6,0-4.6,0-3.1,4.1c1.1,3,2.6,6,3.3,9.1c0.9,3.5,2.7,4.5,6.3,4.5c93.2-0.1,186.4-0.1,279.5-0.1
		c4.5,0,9.9,1.4,13.2-0.6c3.5-2.1,3.6-8.1,5.4-12.3c2.1-5.2,1.8-4.6-3.4-4.6c-60.2,0-120.5,0-180.7,0c-1.9,0-3.7,0.1-5.6-0.5
		c-3.4-1.2-5.3-3.6-5.3-7.3c0-3.7,2-6,5.5-7.1c1.8-0.6,3.7-0.4,5.6-0.4c62.4,0,124.7,0,187.1,0.1c3.3,0,4.7-0.9,5.8-4.1
		c2.7-8.3,6-16.3,9-24.5c1.5-4,1.5-4-2.9-4C368.6,334.4,312.5,334.4,256.3,334.4z M131.7,319c10.1,0,20.2-0.2,30.3,0.1
		c3.7,0.1,5.9-0.8,7.3-4.5c3.5-9,9.9-15.4,18.9-19.1c1.3-0.5,2.4-1.3,3.7-1.8c1.7-0.7,2.6-1.9,2.6-3.7c0.5-10.9,3.9-20.7,10.7-29.3
		c1.6-2,1.6-3.7,0-5.7c-6.5-8.3-10.2-17.8-11.5-28.3c-0.5-3.8-2.9-6.3-6.9-6.8c-9.9-1.3-19.1-4.5-27.1-10.8
		c-2.8-2.2-5.1-2.4-7.9-0.1c-8,6.5-17.4,9.4-27.6,10c-2.5,0.1-3.9,1.2-4.7,3.4c-4.3,11.2-12,19.1-23.3,23.3c-2.6,1-3.3,2.8-3.6,5.4
		c-0.9,7.1-1.4,14.4-5.8,20.6c-1.7,2.4-3.1,5.1-4.8,7.5c-1.4,1.9-1.5,3.5,0,5.4c6.6,8.5,10.3,18,11.6,28.7c0.5,4,2.9,5.7,7,5.7
		C111,319,121.3,319,131.7,319z M214.8,242c0.7,1,1.2,2.1,2,3.1c6.6,8.6,6.6,17.2-0.1,25.7c-4.9,6.3-6.7,13.5-7.2,21.2
		c-0.5,6.8-3.8,11.7-9.8,14.8c-3.2,1.6-6.4,3.3-9.6,5c-2.8,1.5-4.8,3.8-5.6,7.3c1.6,0,3,0,4.3,0c23.7,0,47.4,0,71.1,0
		c4.7,0,9.5,0.1,14.2,0c4.5-0.1,10-3.5,10.2-6.5c0.6-10.7,3.8-20.5,10.5-29c1.9-2.4,1.6-4.4-0.2-6.6c-6.2-8.1-9.8-17.2-11-27.3
		c-0.5-4.2-3-6.6-7.3-7.2c-9.8-1.5-18.9-4.5-26.7-10.7c-3-2.4-5.3-2.1-8.3,0.1c-6.3,4.5-12.9,8.4-21,9
		C218.6,240.9,216.6,240.6,214.8,242z M384.4,319c9.1,0,18.2,0,27.3,0c1.3,0,2.8,0.4,3.2-1.6c1.4-6.6,5.6-11.6,9.8-16.6
		c2.3-2.8,2.6-5.3,1.2-8.4c-4.5-10-4.5-20,0-30c0.3-0.6,0.4-1.2,0.6-1.7c0.8-2,0.7-3.7-0.9-5.4c-6.9-7.7-11.5-16.5-12.6-26.9
		c-0.3-3.4-2.2-4.9-5.5-5.3c-9.8-1.2-18.3-5-26.1-11.1c-4-3.1-7.4-2.8-11.6,0.1c-4.3,3-8.4,6.3-13.5,7.9c-2.4,0.8-2.5,2-2.1,4.1
		c1,5.4,4.3,9.5,7.8,13.4c5.8,6.5,7,13.6,3.6,21.4c-3.2,7.4-3.3,14.5,0,22c3.4,7.8,2.2,14.9-3.6,21.4c-3.3,3.8-6.6,7.7-7.7,13
		c-0.6,2.8-0.3,3.8,2.8,3.7C366.2,318.9,375.3,319,384.4,319z M318.1,319c5.7,0,11.5-0.1,17.2,0c1.8,0,3-0.2,3.2-2.5
		c1.1-9.2,5.5-17,11.6-23.8c2-2.2,2.3-4.3,1.1-7c-4.8-10.6-4.7-21.2,0-31.8c0.2-0.5,0.3-1,0.5-1.4c0.8-1.7,0.4-3.1-0.8-4.4
		c-7.4-8-11.8-17.5-13.2-28.3c-0.3-2.5-1.5-3.6-4-4c-9.9-1.4-18.9-4.9-27-11.1c-4.5-3.4-7.6-3.3-12.2,0.1c-7,5.2-14.6,9-23.3,10.3
		c-1.6,0.2-3.2,0.7-4.8,0.9c-2.9,0.5-2.5,3.1-3.1,5c-0.6,1.9,1.2,2.2,2.3,2.8c4.3,2.2,9.1,2.6,13.7,3.5c9.9,2.1,16.6,8,18.5,17.7
		c1.8,9.2,4.9,17.6,10.3,25.2c4.6,6.4,4.6,13.6-0.1,19.9c-5.7,7.8-8.6,16.3-9.3,25.9c-0.2,2.8,0.7,2.8,2.6,2.7
		C307.1,319,312.6,319,318.1,319z"/>
	<path d="M318.8,118.4c0.3,6.8-1.8,12.8-5.9,18.1c-4.5,5.9-4.5,12.3-0.4,18.7c2.7,4.1,2.1,8.2-1.5,10.9c-3.5,2.6-7.7,1.8-10.8-2
		c-7.6-9.5-8.1-25-0.7-34.9c5.1-6.8,5.8-13.4,0.9-20.5c-2.4-3.5-1.4-7.9,1.8-10.3c3.3-2.4,7.5-1.9,10.3,1.5
		C317.1,105.2,319.2,111.4,318.8,118.4z"/>
	<path d="M214,118.3c0.3,6.8-1.8,12.8-6,18.3c-4.3,5.7-4.4,12.4-0.4,18.4c2.9,4.3,2.3,8.5-1.4,11.2c-3.6,2.5-7.7,1.7-10.8-2.2
		c-7.5-9.4-8-24.8-0.7-34.6c5.2-7,6-13.6,1-20.9c-2.3-3.3-1.4-7.6,1.7-10c3.3-2.5,7.5-2.2,10.4,1.2
		C212.2,104.9,214.3,111.2,214,118.3z"/>
	<path d="M266.4,118.6c0.2,6.7-1.9,12.7-6,18c-4.3,5.6-4.4,12.4-0.4,18.4c2.8,4.3,2.3,8.5-1.5,11.1c-3.6,2.5-7.7,1.6-10.8-2.3
		c-7.4-9.4-8-24.9-0.7-34.6c5.2-7,6-13.6,0.9-20.8c-2.3-3.3-1.3-7.7,1.7-10c3.1-2.4,7.3-2.2,10.1,0.9
		C264.7,104.8,266.7,111.3,266.4,118.6z"/>
	<path d="M181.1,374.6c0-4.2,3.5-7.7,7.6-7.6c4,0.1,7.3,3.4,7.4,7.4c0.1,4.2-3.3,7.7-7.4,7.8C184.6,382.3,181.1,378.8,181.1,374.6z"
		/>
	<path d="M113,294.5c0-4.2,3.5-7.7,7.6-7.6c4,0.1,7.3,3.4,7.4,7.4c0.1,4.2-3.3,7.7-7.4,7.8C116.4,302.2,113,298.7,113,294.5z"/>
	<path d="M159.4,241.1c0.1,4.3-3.2,7.6-7.5,7.6c-4.2,0-7.4-3.1-7.5-7.2c-0.1-4.2,3.1-7.8,7.3-7.9
		C155.8,233.5,159.3,236.9,159.4,241.1z"/>
	<path d="M151.9,282.3c-4.3,0-7.5-3.3-7.5-7.6c0.1-4,3.4-7.4,7.4-7.5c4.1-0.1,7.6,3.3,7.6,7.5C159.4,279.1,156.2,282.4,151.9,282.3z
		"/>
	<path d="M251.5,254.8c4.2,0.1,7.5,3.6,7.4,7.8c-0.1,3.9-3.6,7.3-7.5,7.4c-4.3,0-7.7-3.6-7.5-8C244.1,257.9,247.5,254.7,251.5,254.8
		z"/>
	<path d="M240,301.7c-4.3,0-7.6-3.2-7.5-7.5c0-4.1,3.2-7.4,7.3-7.5c4-0.1,7.7,3.4,7.8,7.5C247.7,298.3,244.3,301.7,240,301.7z"/>
	<path d="M391.6,241.6c4.4,0,7.5,3.2,7.4,7.6c-0.1,4.1-3.2,7.4-7.3,7.5c-4.1,0.1-7.7-3.4-7.7-7.5
		C383.9,244.9,387.3,241.6,391.6,241.6z"/>
	<path d="M401.3,296.8c0,4.2-3.5,7.7-7.6,7.6c-4.1-0.1-7.6-3.7-7.5-7.8c0.1-3.9,3.6-7.3,7.5-7.4
		C397.9,289.1,401.3,292.6,401.3,296.8z"/>
	<path d="M333.4,253.5c-0.1,4.1-3.7,7.7-7.7,7.5c-4-0.1-7.6-3.9-7.5-7.9c0.2-3.9,3.7-7.3,7.6-7.3
		C329.9,245.8,333.5,249.4,333.4,253.5z"/>
</g>
</svg>
