<?xml version="1.0" encoding="utf-8"?>
<!-- Generator: Adobe Illustrator 26.3.1, SVG Export Plug-In . SVG Version: 6.00 Build 0)  -->
<svg version="1.1" id="Calque_1" xmlns="http://www.w3.org/2000/svg" xmlns:xlink="http://www.w3.org/1999/xlink" x="0px" y="0px"
	 viewBox="0 0 512 512" style="enable-background:new 0 0 512 512;" xml:space="preserve">
<g>
	<path d="M447.6,237.3c-1.4,8.1-2.3,16.2-4.5,24.1c-8.9,31.4-26.7,56.5-53.9,74.7c-20.8,13.9-43.8,21.2-68.8,22
		c-11.6,0.4-23.2-0.6-34.4-3.7c-3-0.8-4.8-0.6-6.7,2.7c-17.5,30.7-43.7,50.2-78.3,56.4c-42.4,7.7-78.8-4.8-108-36.9
		c-14.3-15.7-23.3-34.2-26.8-55c-6.3-37.5,3.1-70.9,29-99.1c17.1-18.7,38.4-30.1,63.3-34.8c9.6-1.8,19.3-2.8,29-1.4
		c3.6,0.5,5.1-0.6,6.4-4c13.3-35.6,37.6-60.9,72.4-75.8c22.2-9.5,45.5-12.2,69.5-8.6c5.3,0.8,10.5,2.2,15.7,3.3c3,0.6,5.4,2,6.1,5.2
		c0.7,3.2-0.8,5.6-3.3,7.4c-6.7,4.9-10.2,11.5-10.2,19.8c0.1,15.9,16.3,27.1,31.2,21.7c0.7-0.3,1.4-0.5,2.1-0.8
		c5.6-2,9-0.2,10.1,5.6c1.5,8,5.4,14.2,12.7,17.9c8.4,4.2,16.6,3.6,24.4-1.8c0.8-0.6,1.6-1.2,2.4-1.7c4.4-2.9,8.6-1.7,10.6,3.1
		c4.7,11.7,8,23.8,9.1,36.4c0.1,1.1,0.5,2.2,0.7,3.2C447.6,223.8,447.6,230.6,447.6,237.3z M281.5,300.5
		c-0.4-56.4-45.4-102-102.2-101.7c-57.9,0.2-102,46.6-101.8,102.1c0.2,56.8,45.9,102,102.1,101.9
		C235.7,402.7,281.6,356.6,281.5,300.5z M338.3,111.6c-0.7-0.3-1.2-0.6-1.8-0.7c-14.3-2.3-28.6-2.5-42.7,0.6
		c-41.8,9.3-70.9,33.9-87.2,73.6c-1.1,2.7-0.9,3.7,2.2,4.5c18.4,4.8,34.7,13.6,48.7,26.5c20.2,18.9,32.3,42.1,35.9,69.5
		c2.4,17.8,0.6,35.3-5.4,52.3c-1,2.7-0.5,3.6,2.3,4.2c13,2.9,26.1,3.7,39.3,2.2c25.1-2.8,47.5-12.2,65.7-29.4
		c35.9-33.9,47.2-75.1,34.1-122.9c-0.7-2.7-1.7-2.8-4-1.8c-18.8,7.9-39.7-0.6-47.9-19.4c-0.8-1.9-1.4-2.5-3.7-2.1
		c-19.9,3.4-39.3-11.4-41.7-31.5C331,128,333.4,119.7,338.3,111.6z"/>
	<path d="M111.6,278.4c7,0.1,12.2,2.4,16.4,6.5c4.3,4.2,8.6,8.3,12.7,12.7c8.9,9.4,8.9,22.8,0.1,31.5c-8.6,8.7-22.2,8.7-31.5-0.1
		c-4.9-4.6-9.8-9.3-14.1-14.4c-5.9-7-6.8-15.2-2.9-23.4C96.3,282.8,103.4,278.8,111.6,278.4z M125.5,322.7c3.3-0.3,6.3-1.5,7.9-5
		c1.6-3.5,1.6-7.2-1.1-10.1c-4.3-4.7-8.8-9.2-13.5-13.5c-4-3.6-9.6-3.2-13.1,0.4c-3.4,3.5-3.2,9.2,0.6,13.2c4,4.2,8.1,8.1,12.2,12.2
		C120.3,321.7,122.6,322.6,125.5,322.7z"/>
	<path d="M220.4,364.5c-4.9,0-9.7,0-14.6,0c-4.5,0-7.3-2.3-7.3-6.7c-0.2-10.5-0.1-20.9,0-31.4c0-2.7,1.4-5,4.1-6.1
		c2.8-1.2,5.2-0.2,7.2,1.7c10.5,10.4,21,20.9,31.5,31.5c2,2,2.7,4.6,1.5,7.2c-1.3,2.8-3.5,4-6.6,3.9
		C230.9,364.5,225.7,364.5,220.4,364.5z M212.1,343.3c-1.1,9.7-1.6,9.2,7.8,8C217.4,348.7,214.7,346,212.1,343.3z"/>
	<path d="M150.8,223.9c4.9,0,9.7,0,14.6,0c3.2,0,6,1.1,7.3,4.2c1.1,3,0,5.5-2.2,7.8c-10.2,10.1-20.3,20.2-30.4,30.4
		c-2.1,2.1-4.6,3.1-7.4,2.1c-3.1-1.1-4.3-3.7-4.3-6.8c-0.1-10-0.1-19.9,0-29.9c0.1-5.3,2.7-7.7,8-7.8
		C141,223.8,145.9,223.9,150.8,223.9z M149.7,237.4c-8.1-1.4-8.8-0.8-8.3,7.3c0,0.3,0.2,0.6,0.2,0.8
		C144.3,242.8,147,240.1,149.7,237.4z"/>
	<path d="M205,256.1c0-10.6,8.7-19.4,19.1-19.4c10.5,0,19.1,8.8,19.1,19.4c0,10.4-8.5,19-19,19.2C213.8,275.4,205.1,266.7,205,256.1
		z M230.4,256.3c0.2-3.3-2.5-6.2-5.9-6.4c-3.5-0.2-6.3,2.2-6.6,5.6c-0.3,3.3,2.3,6.3,5.7,6.6C227.2,262.3,230.2,259.8,230.4,256.3z"
		/>
	<path d="M160.3,390c-10.7,0-19.4-8.7-19.3-19.2c0.1-10.6,8.7-19.1,19.4-19c10.4,0,19,8.6,19.1,19C179.6,381.4,171,390,160.3,390z
		 M166.4,371.1c0.1-3.4-2.5-6.3-5.9-6.4c-3.2-0.2-6.2,2.7-6.4,5.9c-0.2,3.5,2.7,6.6,6.1,6.6C163.5,377.3,166.3,374.5,166.4,371.1z"
		/>
	<path d="M173.6,307.1c-5.4,0.1-8.9-5.4-6-9.4c4.3-5.8,9.5-10.9,15.2-15.3c2.5-1.9,5.4-1,7.5,1.1c2.1,2.2,2.9,5,0.9,7.5
		c-4.5,5.7-9.6,10.7-15.3,15.2C175.2,306.9,174.1,306.9,173.6,307.1z"/>
	<path d="M250.3,288.1c1.8-0.1,3.4,1.1,4.8,2.5c3.7,3.7,7.4,7.3,11.1,11.1c3.2,3.3,3.4,7.2,0.6,9.9c-2.8,2.7-6.3,2.5-9.6-0.7
		c-4-3.9-8-7.9-11.9-11.9c-1.9-2-2.7-4.5-1.4-7.2C245.2,289.3,247.1,288,250.3,288.1z"/>
	<path d="M316.1,253.1c-9.3-0.3-16.3-4.6-20.1-13c-3.6-8.1-2.8-16.1,3.1-23.1c5.2-6.2,10.9-12,17.1-17.2c9.1-7.7,22-7,30.1,1.3
		c8.1,8.2,8.6,21.2,0.8,30.1c-5.2,6-10.9,11.6-16.9,16.9C326.2,251.6,321.4,253.2,316.1,253.1z M315.9,240.2c2.5-0.1,5.1-1,7.1-3
		c4.7-4.6,9.5-9.2,14-14c3.6-3.8,3.4-9.7-0.2-13.1c-3.5-3.3-9.2-3.5-12.9,0c-5,4.7-9.8,9.6-14.6,14.5c-2.7,2.9-3.2,6.4-1.7,10.1
		C309.1,238.2,312.2,239.5,315.9,240.2z"/>
	<path d="M370.9,310.8c-15.9-0.7-27.2-14.3-26.2-28.8c1.2-17.2,14.5-28.2,31-26.6c14.4,1.4,25.8,15.2,24.6,29.7
		C399.1,300.4,385.7,312.1,370.9,310.8z M357.7,282.7c-0.1,8.5,6.2,15.1,14.5,15.2c8.4,0.1,15.4-6.6,15.4-14.9c0-8-6.7-14.7-14.7-15
		C364.7,267.8,357.8,274.5,357.7,282.7z"/>
	<path d="M275.3,173.1c-0.1,10.5-9.1,19.4-19.5,19.2c-10.4-0.2-19-8.9-19-19.2c-0.1-10.4,8.9-19.4,19.3-19.3
		C266.6,153.8,275.4,162.7,275.3,173.1z M262.2,173c0-3.5-2.6-6.1-6.1-6.1c-3.5,0-6.1,2.6-6.1,6.1c0,3.5,2.6,6.1,6.1,6.1
		C259.6,179.1,262.2,176.5,262.2,173z"/>
	<path d="M300.6,141c2.4,0,4.3,1.2,5.6,3.1c4.2,6.2,8.4,12.3,12.4,18.6c2.1,3.3,1.4,7-1.4,9c-2.9,2.1-6.9,1.5-9.2-1.8
		c-4.4-6.3-8.8-12.7-12.8-19.3C292.7,146.4,295.8,141.2,300.6,141z"/>
	<path d="M326.3,313.3c0,2.3-1.1,4-2.5,5.4c-3.9,3.9-7.7,7.8-11.6,11.6c-3.2,3-7,3.1-9.6,0.4c-2.5-2.5-2.5-6.3,0.3-9.4
		c3.9-4.2,8-8.2,12.2-12.1c2.1-2,4.7-2.8,7.5-1.4C324.9,308.9,326,310.9,326.3,313.3z"/>
	<path d="M396.8,217.8c1.7-0.2,3.2,0.7,4.5,2c4.1,4,8.2,8,12.1,12.2c2.8,2.9,2.7,6.9,0.2,9.4c-2.6,2.5-6.1,2.7-9.1-0.1
		c-4.3-4.1-8.5-8.4-12.7-12.7c-2-2.1-2.5-4.6-1.1-7.2C392.2,219.1,394,217.7,396.8,217.8z"/>
</g>
</svg>
