<?xml version="1.0" encoding="utf-8"?>
<!-- Generator: Adobe Illustrator 26.3.1, SVG Export Plug-In . SVG Version: 6.00 Build 0)  -->
<svg version="1.1" id="Calque_1" xmlns="http://www.w3.org/2000/svg" xmlns:xlink="http://www.w3.org/1999/xlink" x="0px" y="0px"
	 viewBox="0 0 512 512" style="enable-background:new 0 0 512 512;" xml:space="preserve">
<g>
	<path d="M64.4,201.3c1.8-6.9,4.1-13.5,8.9-19c17.3-20,47.9-17.7,61.9,4.8c1.4,2.2,2.4,2.4,4.7,1.6c16.7-5.5,33.8,0.3,43.7,14.7
		c1.4,2.1,2.7,2.6,5.2,2c2.9-0.6,5.9-0.6,8.9-0.7c1.6,0,2.1-0.5,2.1-2.2c0-15,6.9-25.9,20.2-32.7c1.9-1,1.4-2.1,1.1-3.7
		c-4.4-20.4,8.8-40.2,28.8-43.4c25.2-4.1,46.3,18.1,41,43.2c-0.5,2.3-0.2,3.2,1.9,4.3c14.6,7.7,21.6,22.1,18.8,38.8
		c-0.7,4.2,3.4,3.8,5.4,6.7c0.5-7.2,2.7-12.9,7.3-17.4c4.6-4.5,10.2-6.7,16.5-6.7c11.8-0.1,19,6.7,24,22.5c5.5-6,12.2-9.2,20.3-8.3
		c5.2,0.6,9.8,2.9,13.4,6.7c8.8,9.1,8.2,19.1-2,33.5c4.5,0.7,8.8,1.9,12.4,4.7c8.1,6.2,11.3,14.5,9.2,24.4c-0.7,3.3,0.3,3.4,2.9,3.4
		c6.1-0.1,12.2-0.1,18.3,0c5.5,0,8.4,2.8,8.3,8.3c-1.6,67.6-30.4,120.5-85.8,159.1c-1.9,1.3-4,1.8-6.3,1.8c-66.2,0-132.5,0-198.7,0
		c-2.8,0-5-0.8-7.3-2.3c-44.6-30.8-72.3-72.6-82.2-126c-1.2-6.6-2-13.3-2.9-19.9c0-5.5,0-11,0-16.5c2.6-3.6,6.1-4.9,10.6-4.6
		c4.5,0.4,9.1,0.1,14.2,0.1c-7.3-11.7-8.8-23.4-4.2-35.8c0.6-1.6-0.2-1.9-1.2-2.5c-3.6-2.1-6.7-4.7-9.6-7.7
		c-5.3-5.6-7.8-12.6-9.7-19.9C64.4,208.8,64.4,205.1,64.4,201.3z M256.1,293.4c-57.1,0-114.2,0-171.4,0c-1,0-2,0.1-3,0
		c-1.6-0.1-2.2,0.4-2,2.1c0.6,5.1,1.1,10.2,1.4,15.2c0.2,3,1.4,3.7,4.4,3.7c44.7-0.1,89.3-0.1,134-0.1c1.1,0,2.2,0,3.4,0
		c4.1,0.3,6.9,3.2,7,7.3c0.1,4.8-3,7.6-8.5,7.6c-44.2,0-88.3,0-132.5,0c-3,0-4.1,0.2-3.1,3.8c11.7,41,35,73.6,69.8,98.1
		c1.5,1.1,3,1.5,4.8,1.5c63.7,0,127.5,0,191.2,0c1.7,0,3.1-0.3,4.5-1.3c34.7-24.4,58.1-56.9,69.8-97.7c1.2-4.3,1.2-4.3-3.3-4.3
		c-43.4,0-86.8,0-130.2,0c-1.1,0-2.3,0.1-3.4,0c-3-0.3-5-1.9-6.2-4.7c-1.2-2.7-0.7-5.1,1-7.4c1.8-2.4,4.4-2.9,7.3-2.9
		c38.5,0,77.1,0,115.6,0c6.9,0,13.7,0,20.6,0c2,0,3.1-0.1,3.3-2.6c0.5-4.6,1.2-9.1,1.4-13.7c0.2-4.6,0.2-4.6-4.6-4.6
		C370.4,293.4,313.2,293.4,256.1,293.4z M247.6,246.9c0.3-0.1,0.6-0.3,0.9-0.4c0-1.3,0-2.7,0-4c0-14.6,0-29.2,0-43.8
		c0-4,2.6-6.9,6.5-7.5c3.3-0.5,6.7,1.6,8,4.8c0.6,1.5,0.4,2.9,0.4,4.4c0,24.7,0.1,49.4-0.1,74.1c0,3.5,1,4.1,4.2,4
		c6.4-0.2,12.7-0.1,19.1-0.1c3,0,6-0.4,8.9-1.2c12.3-3.4,20.2-13.1,21.5-26.2c1.1-11.6-5.5-22.8-16.4-28.2c-6.1-3-7.6-6.2-5.4-11.8
		c5.6-14-1.4-26.6-16.2-29.3c-6.3-1.1-8.8-6.5-5.8-12c0.4-0.7,0.8-1.3,1.1-1.9c3.8-7.3,2.9-16.5-2.3-22.8c-5.4-6.4-14-9-21.9-6.6
		c-12.9,3.9-18.6,18.7-11.4,30.5c3.4,5.6,0.9,12.1-5.4,12.7c-13.4,1.3-22.7,16.2-16.3,29.6c2.3,4.9,0.7,8.5-4.3,11
		c-0.7,0.3-1.4,0.6-2,1c-11.3,5.9-17.2,17.9-15.2,31c1.7,11.7,11.7,21.6,24,23.5c9,1.4,18.2,0.3,27.3,0.6c0.7,0,1.4,0.1,1.9-0.8
		c0.9-2.1-0.3-9-2.1-10.8c-7.2-7.2-14.5-14.4-21.7-21.7c-3.8-3.9-4.1-8.3-0.9-11.5c3.3-3.3,7.7-3.1,11.5,0.8
		C239.5,238.5,243.5,242.7,247.6,246.9z M189.3,221.2c-0.8-0.4-1.5,0.1-2.2,0.3c-9.2,2.7-10.2,2.3-14.3-6.4
		c-6.1-12.9-22.3-17.1-34.2-8.9c-6.8,4.7-11.5,3-13.7-5c-3.4-12.3-15.8-19.7-27.8-16.6c-10.5,2.7-17.7,11.7-17.8,22.2
		c-0.1,10.5,7,19.6,17.4,22.5c7.9,2.2,9.6,7.1,5,13.9c-3.9,5.7-5.3,12-3.7,18.8c2.3,9.8,10.6,16.5,20.6,16.5c22.6,0,45.1,0,67.7,0
		c1.3,0,2.6,0.3,3.9-0.4C176.4,259.1,176.2,240.3,189.3,221.2z M321.3,278.3c1.4,0.1,2,0.1,2.6,0.1c23.3,0,46.6,0,69.9,0
		c6,0,9.7-3.3,9.8-8.4c0.1-5.3-3.6-8.6-9.9-8.7c-5,0-10-0.1-15,0c-3.7,0.1-6.6-1.1-8.1-4.7c-1.6-3.7-0.1-6.5,2.5-9
		c4.6-4.6,9.2-9.1,13.7-13.8c3.5-3.6,3.7-7.9,0.7-10.9c-3.1-3-7-2.7-10.6,0.8c-4.5,4.5-9.1,8.9-13.5,13.5c-2.6,2.7-5.6,4.3-9.3,2.9
		c-3.9-1.5-5-4.9-4.9-8.8c0-5.1,0.1-10.2,0-15.3c-0.2-5.6-3.4-8.9-8.4-8.9c-5.1,0-8.4,3.6-8.4,9.3c0,9-0.2,18,0,26.9
		C332.8,256.1,330.1,267.8,321.3,278.3z"/>
	<path d="M309.9,64.4c3.8,1.4,7.9,2,11.7,3.7c19.8,8.8,30,31.2,24.1,51.9c-2.1,7.2-7.8,7.8-13.4,8.6c-26.4,3.4-48.7-15.5-49.7-42.1
		c-0.1-3,0.2-6,0.8-8.9c1.7-9.2,3.2-10.6,12.3-12.4c0.6-0.1,1.2-0.1,1.6-0.8C301.4,64.4,305.6,64.4,309.9,64.4z M325.6,113.8
		c6.3,0,7-0.7,6.6-7.1c-0.2-3.2-0.8-6.4-2-9.4c-4.4-11.2-16.5-19-28-17.8c-1.8,0.2-3.9-0.2-4.3,2.9
		C295.9,98.9,308.9,113.8,325.6,113.8z"/>
	<path d="M215.6,64.4c0.8,1,2,0.8,3,1.2c10.3,3.9,16.6,14.4,14.7,24.9c-1.9,10.9-11.3,18.8-22.3,18.8c-10.9,0-20.2-7.7-22.2-18.4
		c-2-10.7,4.3-21.4,14.7-25.2c1-0.4,2.3-0.2,3.1-1.2C209.6,64.4,212.6,64.4,215.6,64.4z M211.2,94.2c3.9-0.1,7.4-3.7,7.3-7.6
		c-0.1-3.9-3.7-7.4-7.6-7.3c-3.9,0.1-7.4,3.7-7.3,7.6C203.7,90.8,207.3,94.3,211.2,94.2z"/>
	<path d="M447.6,116.8c0,39.7-34.1,70.9-73.5,67.2c-15.4-1.5-28.8-7.5-40.1-18.1c-5-4.7-5-8.6-0.3-13.4c6.2-6.3,12.5-12.5,18.8-18.8
		c4.5-4.5,7.7-4.6,12.6-0.4c7,5.9,14.8,7.6,23.3,4.2c8.4-3.3,13-9.9,14-18.8c0.7-6.4-1.5-12-5.6-16.9c-4.3-5.1-4.2-8.2,0.5-12.9
		c6.2-6.2,12.3-12.4,18.5-18.5c5-4.9,8.8-4.9,13.6,0.3C441.5,83.7,447.5,99.1,447.6,116.8z M417.7,117.6c0,24.8-25.1,42.8-49.5,34.7
		c-3.2-1.1-6-4.7-9.2-3.2c-3.1,1.5-5.1,5-7.8,7.4c-2.1,1.8-1.5,2.8,0.5,4c10.8,6.8,22.5,9.4,35.3,8c37.8-4.2,58.6-49.2,37.1-80.6
		c-1.3-1.9-2.1-2.4-3.8-0.5c-2,2.3-4.3,4.5-6.6,6.6c-1.5,1.4-1.8,2.4-0.7,4.3C416.1,104,417.8,110.1,417.7,117.6z"/>
	<path d="M173.4,170.9c-13.5-0.6-25.7-8.1-32.2-23.3c-6.5-15-3.7-29,7-41.3c3.8-4.3,8.3-4.5,12.3-0.5c14.3,14.1,28.4,28.3,42.6,42.6
		c4.1,4.1,3.8,8.3-0.5,12.3C195.2,167.5,186.4,170.9,173.4,170.9z M186.1,153.3c-0.2-1.1-1.1-1.6-1.8-2.3
		c-9.2-9.2-18.3-18.3-27.5-27.5c-1.4-1.4-1.8-0.5-2.3,0.7c-1.5,3.8-1.6,7.8-1.2,11.8C155,151,173.5,160.8,186.1,153.3z"/>
	<path d="M304.6,150.8c0.1-4.2,3.5-7.5,7.7-7.3c4.1,0.1,7.2,3.4,7.2,7.5c0,4.2-3.5,7.7-7.6,7.6C308,158.5,304.6,154.9,304.6,150.8z"
		/>
	<path d="M119.7,142.5c-0.1,4.2-3.6,7.4-7.9,7.2c-4.2-0.2-7.3-3.7-7.1-8c0.2-4.1,3.5-7.1,7.7-7C116.7,134.8,119.9,138.2,119.7,142.5
		z"/>
	<path d="M256.2,329.3c-4.2,0.1-7.7-3.2-7.7-7.4c0-4.2,3.3-7.6,7.5-7.6c4.2,0,7.3,3.1,7.4,7.2C263.6,326,260.5,329.2,256.2,329.3z"
		/>
	<path d="M133.9,230.5c2-0.1,3.8,0.9,5.3,2.5c6.4,6.4,12.9,12.8,19.3,19.3c3.3,3.4,3.3,7.9,0.1,11c-3.1,3-7.3,3-10.7-0.3
		c-6.6-6.4-13.1-13-19.6-19.5c-2.4-2.4-3.1-5.4-1.6-8.6C128.1,232.1,130.4,230.5,133.9,230.5z"/>
</g>
</svg>
