<?xml version="1.0" encoding="utf-8"?>
<!-- Generator: Adobe Illustrator 26.3.1, SVG Export Plug-In . SVG Version: 6.00 Build 0)  -->
<svg version="1.1" id="Calque_1" xmlns="http://www.w3.org/2000/svg" xmlns:xlink="http://www.w3.org/1999/xlink" x="0px" y="0px"
	 viewBox="0 0 512 512" style="enable-background:new 0 0 512 512;" xml:space="preserve">
<g>
	<path d="M295.6,447.6c-44.8-15.3-84.1-40.2-119.7-70.9c-47.7-41.2-83.6-91-108-149.1c-10.5-24.9,2.9-51.3,29-57.2
		c9.3-2.1,18.4-0.8,26.8,3.6c2.2,1.1,4,1.2,6.3,0.4c84.1-30,168.1-60,252.2-90c17.5-6.2,34.9-12.4,52.4-18.7
		c6.8-2.4,8.3-2.1,12.9,3.1c0,2,0,4,0,6c-1.3,0.8-1.2,2.3-1.7,3.5c-35.3,103.1-70.6,206.1-105.9,309.2c-0.7,2-0.7,3.7,0,5.7
		c7.6,21.9-4.1,45.2-26.1,52.4c-2.1,0.7-4.4,0.6-6.3,1.9C303.6,447.6,299.6,447.6,295.6,447.6z M427.8,84.4c-1.8,0.6-3,1-4.1,1.4
		c-29.5,10.5-59,21-88.5,31.6c-6.3,2.3-6.3,2.2-3.9,8.3c0.3,0.7,0.6,1.4,0.8,2.1c1.2,4.2-0.7,8-4.4,9.5c-3.8,1.5-7.7-0.2-9.6-4.1
		c-0.8-1.7-1.7-3.4-2.1-5.2c-0.8-2.9-2.2-3.1-4.9-2.2c-28.5,10.3-57.1,20.5-85.7,30.6c-2.9,1-3.4,1.9-1.9,4.8
		c6.4,12.8,3.9,28.2-6,38.4c-9.9,10.3-25,13.4-38.1,7.7c-10.6-4.7-17.2-12.8-19.9-24.1c-0.2-1,0.2-3.2-1.7-2.5
		c-6.2,2-12.2,4.3-18.5,6.6c2.4,3.7,3.9,7.3,5.4,10.8c29.5,67.9,76.5,119.8,141.2,155.8c13.8,7.7,29,12.6,42.4,21.2
		c0.2-0.4,0.4-0.8,0.6-1.3c12.4-36.3,24.8-72.7,37.4-109c0.6-1.8,0.1-2.7-1.2-3.7c-6.1-4.6-12.1-9.2-18.1-13.9
		c-4.3-3.4-5.2-7.6-2.4-11.3c2.9-3.8,7.1-4.1,11.5-0.8c4.5,3.4,9,6.7,13.3,10.3c2.1,1.7,3,1.8,3.9-1.1c4.1-12.4,8.3-24.7,12.6-37.1
		c0.8-2.3,0.5-3.1-2-3.8c-19.4-5.2-30.1-25.1-23.7-43.9c6.3-18.7,27-28.1,45.5-20.4c2.8,1.2,3.5,0.4,4.3-2.1
		c4-12.2,8.2-24.2,12.4-36.4C424,95.5,425.8,90.3,427.8,84.4z M327.2,403.8c-0.4-7.5-5-15.5-14.6-20.4c-2.2-1.1-4.5-2-6.8-3
		c-35-15.1-66.4-35.7-94.3-61.6c-35.8-33.2-63-72.3-82-117.3c-6-14.3-20.9-20.5-34.4-14.6c-13.4,5.8-19.2,20.7-13.3,34.7
		c27.9,66,70.3,120.6,128.1,163.2c25,18.4,51.9,33.4,80.5,45.4C308.3,437.7,327.1,425.7,327.2,403.8z M192.9,195
		c7,0,13.5-3.8,16.7-10.1c3.4-6.6,2.9-13.1-1-19.5c-1-1.6-2.1-2.4-4.2-1.6c-9.4,3.5-18.9,6.9-28.4,10.1c-2,0.7-2.4,1.7-2.2,3.6
		C174.9,187.7,182.9,195,192.9,195z M393,151.7c-10-0.2-18.6,7.2-19.5,16.7c-1,10,5.7,19,15.3,20.9c2.2,0.4,3.3-0.1,4.1-2.4
		c2.8-8.6,5.8-17.2,8.7-25.8c2.2-6.5,1.1-8.2-5.9-9.2C394.7,151.8,393.7,151.8,393,151.7z"/>
	<path d="M294.1,228.2c-18.4,0.1-34-15.4-34.2-34c-0.2-18.7,15.3-34.2,34.2-34.4c18.4-0.1,34,15.4,34.2,34
		C328.5,212.4,312.9,228.1,294.1,228.2z M313,193.9c0-10.7-8.3-18.8-19-18.8c-10.6,0-18.8,8.4-18.7,19.1
		c0.1,10.5,8.2,18.6,18.8,18.6C304.7,212.9,313,204.6,313,193.9z"/>
	<path d="M292.1,253c18.9,0,34.1,15.1,34.2,33.8c0,19-15.1,34.3-34,34.3c-19,0-34.1-15.1-34.1-34.2C258.2,268.1,273.3,253,292.1,253
		z M273.2,287c-0.1,10.3,8.5,19,18.9,19.1c10.2,0.1,19.1-8.7,19.1-19c0-10.3-8.6-19-19-19.1C282.1,267.9,273.2,276.6,273.2,287z"/>
	<path d="M226.2,219.4c6.2,0.9,14,1.8,21.7,3.1c4,0.6,6.2,4.2,5.8,8.3c-0.4,3.7-3.6,6.8-7.4,6.5c-8.3-0.8-16.6-1.9-24.8-3.2
		c-3.7-0.6-6.3-4.6-5.8-8.1C216.3,221.6,219.6,219.1,226.2,219.4z"/>
	<path d="M218.6,264c0-4.8,3-8.2,7-8.6c3.7-0.4,7.2,2.3,7.9,6.4c0.9,5.1,1.6,10.3,2.2,15.5c0.5,4.6-2.3,8.1-6.3,8.6
		c-4.5,0.6-7.8-1.9-8.6-6.7C219.9,273.9,219.2,268.6,218.6,264z"/>
	<path d="M134.7,250c0,3.9-2.2,6.7-5.5,7.6c-3.5,0.9-6.7-0.3-8.6-3.6c-3.4-6.2-6.8-12.4-9.9-18.8c-3.5-7.1-6.7-14.4-9.9-21.7
		c-2.1-4.7-0.6-8.8,3.5-10.7c4.1-1.9,8.2-0.2,10.2,4.6c5.7,13.2,12,26.2,19,38.8C134.4,247.5,134.9,248.9,134.7,250z"/>
	<path d="M138.9,261.6c4.1,0.1,7.6,3.7,7.6,7.7c-0.1,4-3.7,7.6-7.7,7.6c-4-0.1-7.6-3.7-7.6-7.7C131.3,265.1,134.9,261.6,138.9,261.6
		z"/>
</g>
</svg>
